<svg width="64" height="64" viewBox="0 0 64 64" fill="none" xmlns="http://www.w3.org/2000/svg">
    <path d="M60.3284 56.6478C62.3066 56.6478 63.9156 58.2777 63.9156 60.2817C63.9156 62.2895 62.3066 63.9156 60.3284 63.9156H40.0527C38.0744 63.9156 36.4655 62.2895 36.4655 60.2817C36.4655 58.2777 38.0744 56.6478 40.0527 56.6478H60.3284ZM46.2673 2.48228L51.5048 6.6429C53.6526 8.32242 55.0844 10.5363 55.5743 12.8647C56.1395 15.426 55.5366 17.9415 53.841 20.1172L22.6417 60.4638C21.2099 62.296 19.0998 63.3266 16.839 63.3648L4.40447 63.5174C3.72623 63.5174 3.16103 63.0594 3.0103 62.4105L0.184284 50.1576C-0.305559 47.9056 0.184284 45.5772 1.61613 43.7831L23.7345 15.155C24.1113 14.6969 24.7895 14.6244 25.2417 14.9641L34.5487 22.3693C35.1516 22.8655 35.9805 23.1327 36.8472 23.0182C38.6935 22.7892 39.937 21.1096 39.7486 19.3156C39.6355 18.3995 39.1834 17.6361 38.5805 17.0635C38.3921 16.9109 29.5372 9.81108 29.5372 9.81108C28.972 9.35303 28.859 8.51327 29.3111 7.94453L32.8154 3.39838C36.0559 -0.76224 41.7079 -1.14395 46.2673 2.48228Z" fill="#196AC8"/>
</svg>