<svg xmlns="http://www.w3.org/2000/svg" width="300" height="180" viewBox="0 0 300 180">
    <path fill="#ffffff" fill-rule="nonzero" d="M270 166C270.552285 166 271 165.552285 271 165 271 164.447715 270.552285 164 270 164 269.447715 164 269 164.447715 269 165 269 165.552285 269.447715 166 270 166zM270 167C268.895431 167 268 166.104569 268 165 268 163.895431 268.895431 163 270 163 271.104569 163 272 163.895431 272 165 272 166.104569 271.104569 167 270 167zM164 17C164.552285 17 165 16.5522847 165 16 165 15.4477153 164.552285 15 164 15 163.447715 15 163 15.4477153 163 16 163 16.5522847 163.447715 17 164 17zM164 18C162.895431 18 162 17.1045695 162 16 162 14.8954305 162.895431 14 164 14 165.104569 14 166 14.8954305 166 16 166 17.1045695 165.104569 18 164 18zM285 72C285.552285 72 286 71.5522847 286 71 286 70.4477153 285.552285 70 285 70 284.447715 70 284 70.4477153 284 71 284 71.5522847 284.447715 72 285 72zM285 73C283.895431 73 283 72.1045695 283 71 283 69.8954305 283.895431 69 285 69 286.104569 69 287 69.8954305 287 71 287 72.1045695 286.104569 73 285 73z"/>
    <polygon fill="#ffffff" points="281 155 281 153 282 153 282 155 284 155 284 156 282 156 282 158 281 158 281 156 279 156 279 155"/>
    <polygon fill="#ffffff" points="175 27 175 25 176 25 176 27 178 27 178 28 176 28 176 30 175 30 175 28 173 28 173 27"/>
    <path fill="#ffffff" fill-rule="nonzero" d="M20,35 C20.5522847,35 21,34.5522847 21,34 C21,33.4477153 20.5522847,33 20,33 C19.4477153,33 19,33.4477153 19,34 C19,34.5522847 19.4477153,35 20,35 Z M20,36 C18.8954305,36 18,35.1045695 18,34 C18,32.8954305 18.8954305,32 20,32 C21.1045695,32 22,32.8954305 22,34 C22,35.1045695 21.1045695,36 20,36 Z"/>
    <path fill="#ffffff" fill-rule="nonzero" d="M34.8062676 19.1937324C35.0645775 19.4520422 35.0645775 19.8708451 34.8062676 20.1291549L33.4031338 21.5322887C33.144824 21.7905985 32.7260211 21.7905985 32.4677113 21.5322887 32.2094015 21.2739789 32.2094015 20.855176 32.4677113 20.5968662L33.8708451 19.1937324C34.1291549 18.9354225 34.5479578 18.9354225 34.8062676 19.1937324L34.8062676 19.1937324zM31.5322887 22.4677113C31.7905985 22.7260211 31.7905985 23.144824 31.5322887 23.4031338L30.1291549 24.8062676C29.8708451 25.0645775 29.4520422 25.0645775 29.1937324 24.8062676 28.9354225 24.5479578 28.9354225 24.1291549 29.1937324 23.8708451L30.5968662 22.4677113C30.855176 22.2094015 31.2739789 22.2094015 31.5322887 22.4677113zM34.8062676 24.8062676C34.5479578 25.0645775 34.1291549 25.0645775 33.8708451 24.8062676L32.4677113 23.4031338C32.2094015 23.144824 32.2094015 22.7260211 32.4677113 22.4677113 32.7260211 22.2094015 33.144824 22.2094015 33.4031338 22.4677113L34.8062676 23.8708451C35.0645775 24.1291549 35.0645775 24.5479578 34.8062676 24.8062676zM31.5322887 21.5322887C31.2739789 21.7905985 30.855176 21.7905985 30.5968662 21.5322887L29.1937324 20.1291549C28.9354225 19.8708451 28.9354225 19.4520422 29.1937324 19.1937324 29.4520422 18.9354225 29.8708451 18.9354225 30.1291549 19.1937324L31.5322887 20.5968662C31.7905985 20.855176 31.7905985 21.2739789 31.5322887 21.5322887zM15.8062676 127.193732C16.0645775 127.452042 16.0645775 127.870845 15.8062676 128.129155L14.4031338 129.532289C14.144824 129.790599 13.7260211 129.790599 13.4677113 129.532289 13.2094015 129.273979 13.2094015 128.855176 13.4677113 128.596866L14.8708451 127.193732C15.1291549 126.935423 15.5479578 126.935423 15.8062676 127.193732L15.8062676 127.193732zM12.5322887 130.467711C12.7905985 130.726021 12.7905985 131.144824 12.5322887 131.403134L11.1291549 132.806268C10.8708451 133.064577 10.4520422 133.064577 10.1937324 132.806268 9.93542255 132.547958 9.93542255 132.129155 10.1937324 131.870845L11.5968662 130.467711C11.855176 130.209401 12.2739789 130.209401 12.5322887 130.467711zM15.8062676 132.806268C15.5479578 133.064577 15.1291549 133.064577 14.8708451 132.806268L13.4677113 131.403134C13.2094015 131.144824 13.2094015 130.726021 13.4677113 130.467711 13.7260211 130.209401 14.144824 130.209401 14.4031338 130.467711L15.8062676 131.870845C16.0645775 132.129155 16.0645775 132.547958 15.8062676 132.806268zM12.5322887 129.532289C12.2739789 129.790599 11.855176 129.790599 11.5968662 129.532289L10.1937324 128.129155C9.93542255 127.870845 9.93542255 127.452042 10.1937324 127.193732 10.4520422 126.935423 10.8708451 126.935423 11.1291549 127.193732L12.5322887 128.596866C12.7905985 128.855176 12.7905985 129.273979 12.5322887 129.532289z"/>
    <polygon fill="#ffffff" fill-rule="nonzero" points="160.507 89.167 151.75 81.2 153.046 80 164 90 153.046 100 151.75 98.8 160.507 90.833 136 90.833 136 89.167"/>
    <path fill="none" stroke="#ffffff" stroke-width="2" d="M269.500083,60.2071068 L245.792976,36.5 L185,36.5 C184.171573,36.5 183.5,37.1715729 183.5,38 L183.5,145.000073 C183.5,145.828501 184.171573,146.500073 185,146.500073 L268.000083,146.500073 C268.82851,146.500073 269.500083,145.828501 269.500083,145.000073 L269.500083,60.2071068 Z"/>
    <path fill="none" stroke="#ffffff" stroke-width="1" d="M246.000083,36 L270.000083,60 L247.000083,60 C246.447798,60 246.000083,59.5522847 246.000083,59 L246.000083,36 Z"/>

    <path fill="#FFFFFF" fill-rule="nonzero" d="M213,108 L203,108 L203,118 L213,118 L213,108 Z M215,108 L215,118 L244,118 L244,108 L215,108 Z M213,128 L213,120 L203,120 L203,128 L213,128 Z M215,128 L244,128 L244,120 L215,120 L215,128 Z M213,96 L203,96 L203,106 L213,106 L213,96 Z M215,96 L215,106 L244,106 L244,96 L215,96 Z M213,86 L203,86 L203,94 L213,94 L213,86 Z M215,86 L215,94 L244,94 L244,86 L215,86 Z M201,84 L246,84 L246,130 L201,130 L201,84 Z"/>

    <path fill="#fff" stroke="#ffffff" d="M241.5,66 L274.5,66 C275.328427,66 276,66.6715729 276,67.5 L276,100.5 C276,101.328427 275.328427,102 274.5,102 L241.5,102 C240.671573,102 240,101.328427 240,100.5 L240,67.5 C240,66.6715729 240.671573,66 241.5,66 Z"/>

    <path fill="gray" fill-rule="nonzero" d="M249,93 L254.977982,83.7515337 L249.3633028,75 L254.779817,75 L256.662385,78.3957055 C257.157798,79.2239264 257.620183,80.1625767 258.214679,81.2944785 L258.346789,81.2944785 C258.842202,80.1625767 259.304587,79.2239264 259.733945,78.3957055 L261.451376,75 L266.636697,75 L261.055046,83.9447853 L267,93 L261.583486,93 L259.436697,89.3282209 C258.908257,88.3895706 258.412844,87.4785276 257.818349,86.3742331 L257.686239,86.3742331 C257.190826,87.4785276 256.695413,88.3895706 256.233028,89.3282209 L254.218349,93 L249,93 Z"/>


    <path fill="#fff" fill-rule="nonzero" d="M18,155 C18.5522847,155 19,154.552285 19,154 C19,153.447715 18.5522847,153 18,153 C17.4477153,153 17,153.447715 17,154 C17,154.552285 17.4477153,155 18,155 Z M18,156 C16.8954305,156 16,155.104569 16,154 C16,152.895431 16.8954305,152 18,152 C19.1045695,152 20,152.895431 20,154 C20,155.104569 19.1045695,156 18,156 Z"/>

    <path fill="none" stroke="#ffffff" stroke-width="2" d="M116.500083,60.2071068 L92.7929761,36.5 L32,36.5 C31.1715729,36.5 30.5,37.1715729 30.5,38 L30.5,145.000073 C30.5,145.828501 31.1715729,146.500073 32,146.500073 L115.000083,146.500073 C115.82851,146.500073 116.500083,145.828501 116.500083,145.000073 L116.500083,60.2071068 Z"/>
    <path fill="none" stroke="#ffffff" stroke-width="1" d="M93.0000829,36 L117.000083,60 L94.0000829,60 C93.4477981,60 93.0000829,59.5522847 93.0000829,59 L93.0000829,36 Z"/>
    <rect width="51" height="2" x="48" y="87" fill="#ffffff"/>
    <rect width="51" height="4" x="48" y="75" fill="#ffffff"/>
    <rect width="51" height="2" x="48" y="97" fill="#ffffff"/>
    <rect width="21" height="2" x="78" y="107" fill="#ffffff"/>
    <rect width="21" height="2" x="78" y="117" fill="#ffffff"/>
    <rect width="21" height="2" x="78" y="127" fill="#ffffff"/>
    <rect width="48" height="24" x="22" y="106" fill="#ffffff" rx="1"/>
    <path fill="gray" fill-rule="nonzero" d="M30,124 L30,111 L34.1148564,111 C37.011236,111 39.1685393,111.993884 39.1685393,115.015291 C39.1685393,117.897554 37.011236,119.229358 34.1947566,119.229358 L32.3171036,119.229358 L32.3171036,124 L30,124 Z M32.3171036,117.380734 L34.0149813,117.380734 C35.9525593,117.380734 36.8913858,116.605505 36.8913858,115.015291 C36.8913858,113.385321 35.8726592,112.848624 33.9350811,112.848624 L32.3171036,112.848624 L32.3171036,117.380734 Z M41.6254682,124 L41.6254682,111 L45.1210986,111 C49.1161049,111 51.4731586,113.146789 51.4731586,117.440367 C51.4731586,121.753823 49.1161049,124 45.2409488,124 L41.6254682,124 Z M43.9425718,122.131498 L44.9612984,122.131498 C47.5980025,122.131498 49.0961298,120.640673 49.0961298,117.440367 C49.0961298,114.259939 47.5980025,112.868502 44.9612984,112.868502 L43.9425718,112.868502 L43.9425718,122.131498 Z M54.1098627,124 L54.1098627,111 L62,111 L62,112.948012 L56.4269663,112.948012 L56.4269663,116.625382 L61.1810237,116.625382 L61.1810237,118.573394 L56.4269663,118.573394 L56.4269663,124 L54.1098627,124 Z"/>
  </svg>
  