<svg width="132" height="132" viewBox="0 0 132 132" fill="none" xmlns="http://www.w3.org/2000/svg">
<path d="M33 0C28.4625 0 24.75 3.7125 24.75 8.25V123.75C24.75 128.288 28.4625 132 33 132H115.5C120.037 132 123.75 128.288 123.75 123.75V33L90.75 0H33Z" fill="#E2E5E7"/>
<path d="M99 33H123.75L90.75 0V24.75C90.75 29.2875 94.4625 33 99 33Z" fill="#B0B7BD"/>
<path d="M123.75 57.75L99 33H123.75V57.75Z" fill="#CAD1D8"/>
<path d="M107.25 107.25C107.25 109.519 105.394 111.375 103.125 111.375H12.375C10.1062 111.375 8.25 109.519 8.25 107.25V66C8.25 63.7312 10.1062 61.875 12.375 61.875H103.125C105.394 61.875 107.25 63.7312 107.25 66V107.25Z" fill="#F15642"/>
<path d="M26.231 78.1564C26.231 77.0674 27.089 75.8794 28.4708 75.8794H36.0897C40.3797 75.8794 44.2407 78.7504 44.2407 84.2531C44.2407 89.4671 40.3797 92.3711 36.0897 92.3711H30.5828V96.7271C30.5828 98.1791 29.6588 99 28.4708 99C27.3818 99 26.231 98.1791 26.231 96.7271V78.1564ZM30.5828 80.0333V88.2503H36.0897C38.3007 88.2503 40.0497 86.2991 40.0497 84.2531C40.0497 81.9473 38.3007 80.0333 36.0897 80.0333H30.5828Z" fill="white"/>
<path d="M50.7006 99C49.6116 99 48.4236 98.406 48.4236 96.9581V78.2224C48.4236 77.0385 49.6116 76.1764 50.7006 76.1764H58.2535C73.3262 76.1764 72.9962 99 58.5505 99H50.7006ZM52.7796 80.2024V94.9781H58.2535C67.1593 94.9781 67.5553 80.2024 58.2535 80.2024H52.7796Z" fill="white"/>
<path d="M78.3421 80.4664V85.7092H86.753C87.941 85.7092 89.129 86.8972 89.129 88.0481C89.129 89.1371 87.941 90.0281 86.753 90.0281H78.3421V96.954C78.3421 98.109 77.5212 98.9959 76.3662 98.9959C74.9142 98.9959 74.0273 98.109 74.0273 96.954V78.2182C74.0273 77.0344 74.9183 76.1722 76.3662 76.1722H87.9451C89.3971 76.1722 90.2551 77.0344 90.2551 78.2182C90.2551 79.2742 89.3971 80.4622 87.9451 80.4622H78.3421V80.4664Z" fill="white"/>
<path d="M103.125 111.375H24.75V115.5H103.125C105.394 115.5 107.25 113.644 107.25 111.375V107.25C107.25 109.519 105.394 111.375 103.125 111.375Z" fill="#CAD1D8"/>
</svg>
